<?xml version="1.0" encoding="utf-8" ?>
<svg baseProfile="full" height="245" version="1.1" width="68" xmlns="http://www.w3.org/2000/svg" xmlns:ev="http://www.w3.org/2001/xml-events" xmlns:xlink="http://www.w3.org/1999/xlink"><defs /><path d="M 39,0 L 38,1 L 36,1 L 35,2 L 34,2 L 33,3 L 32,3 L 29,6 L 28,6 L 28,7 L 25,10 L 25,11 L 24,12 L 24,13 L 23,14 L 23,16 L 22,17 L 22,112 L 20,114 L 19,114 L 18,115 L 16,115 L 15,116 L 14,116 L 13,117 L 11,117 L 10,118 L 9,118 L 8,119 L 6,119 L 5,120 L 4,120 L 3,121 L 1,121 L 0,122 L 1,123 L 2,123 L 3,124 L 5,124 L 6,125 L 7,125 L 8,126 L 10,126 L 11,127 L 12,127 L 13,128 L 15,128 L 16,129 L 17,129 L 18,130 L 20,130 L 22,132 L 22,228 L 23,229 L 23,231 L 25,233 L 25,234 L 26,235 L 26,236 L 30,240 L 31,240 L 33,242 L 34,242 L 35,243 L 37,243 L 38,244 L 67,244 L 67,0 Z" fill="#FFC800" stroke="none" /></svg>