<svg width="11" height="11" viewBox="0 0 11 11" fill="none" xmlns="http://www.w3.org/2000/svg">
<g clip-path="url(#clip0_5_70)">
<path d="M9.55168 2.11293C9.31758 1.87872 9.03964 1.69293 8.73372 1.56618C8.4278 1.43942 8.0999 1.37418 7.76876 1.37418C7.43762 1.37418 7.10973 1.43942 6.80381 1.56618C6.49789 1.69293 6.21994 1.87872 5.98585 2.11293L5.50001 2.59876L5.01418 2.11293C4.54132 1.64007 3.89999 1.37442 3.23126 1.37442C2.56254 1.37442 1.92121 1.64007 1.44835 2.11293C0.975488 2.58579 0.709839 3.22712 0.709839 3.89585C0.709839 4.56457 0.975488 5.2059 1.44835 5.67876L5.50001 9.73043L9.55168 5.67876C9.78589 5.44467 9.97167 5.16672 10.0984 4.8608C10.2252 4.55488 10.2904 4.22699 10.2904 3.89585C10.2904 3.56471 10.2252 3.23681 10.0984 2.93089C9.97167 2.62497 9.78589 2.34703 9.55168 2.11293Z" stroke="#FF7D90" stroke-linecap="round" stroke-linejoin="round"/>
</g>
<defs>
<clipPath id="clip0_5_70">
<rect width="11" height="11" fill="white"/>
</clipPath>
</defs>
</svg>
