<?xml version="1.0" encoding="utf-8"?>
<svg enable-background="new 0 0 288 350" id="Layer_1" version="1.1" viewBox="0 0 288 350" width="100%" x="0px" xml:space="preserve" xmlns="http://www.w3.org/2000/svg" xmlns:xlink="http://www.w3.org/1999/xlink" y="0px">
<path d=" M152.000000,351.000000   C101.333351,351.000000 51.166702,351.000000 1.000040,351.000000   C1.000027,234.333389 1.000027,117.666786 1.000013,1.000134   C96.999908,1.000090 192.999817,1.000090 288.999817,1.000045   C288.999878,117.666534 288.999878,234.333069 288.999939,350.999817   C243.500000,351.000000 198.000000,351.000000 152.000000,351.000000  M220.336075,265.836212   C227.757782,258.413483 235.315659,251.121307 242.578201,243.545990   C278.521393,206.054718 291.733948,161.689621 279.193817,111.290207   C260.858521,37.599548 189.337250,-5.840289 114.739792,9.931893   C57.285213,22.079548 11.940230,73.136131 7.144889,131.592072   C3.580002,175.048615 16.968971,212.647278 47.735943,243.695084   C79.166069,275.412109 110.851486,306.876160 142.429611,338.446442   C143.234848,339.251526 144.091904,340.004761 145.166687,341.007935   C170.175568,315.998291 195.005814,291.167267 220.336075,265.836212  z" fill="none" opacity="1.000000" stroke="none"/>
<path d=" M220.086075,266.086243   C195.005814,291.167267 170.175568,315.998291 145.166687,341.007935   C144.091904,340.004761 143.234848,339.251526 142.429611,338.446442   C110.851486,306.876160 79.166069,275.412109 47.735943,243.695084   C16.968971,212.647278 3.580002,175.048615 7.144889,131.592072   C11.940230,73.136131 57.285213,22.079548 114.739792,9.931893   C189.337250,-5.840289 260.858521,37.599548 279.193817,111.290207   C291.733948,161.689621 278.521393,206.054718 242.578201,243.545990   C235.315659,251.121307 227.757782,258.413483 220.086075,266.086243  M133.514877,76.912338   C106.926704,82.077927 88.421242,97.281891 79.721535,122.828201   C71.027252,148.358597 75.955681,172.073410 94.389114,191.907303   C109.917671,208.615646 126.515137,224.330948 142.663818,240.461441   C143.438110,241.234863 144.447968,241.772446 145.387985,242.448517   C146.252106,241.736435 146.937210,241.260590 147.517975,240.680344   C162.957352,225.254120 178.529709,209.957489 193.778152,194.344559   C210.778244,176.938065 217.339447,155.967087 212.960785,132.044540   C206.110062,94.615921 169.947845,70.758087 133.514877,76.912338  z" fill="#FFD300" opacity="1.000000" stroke="none"/>
<path d=" M133.952454,76.864426   C169.947845,70.758087 206.110062,94.615921 212.960785,132.044540   C217.339447,155.967087 210.778244,176.938065 193.778152,194.344559   C178.529709,209.957489 162.957352,225.254120 147.517975,240.680344   C146.937210,241.260590 146.252106,241.736435 145.387985,242.448517   C144.447968,241.772446 143.438110,241.234863 142.663818,240.461441   C126.515137,224.330948 109.917671,208.615646 94.389114,191.907303   C75.955681,172.073410 71.027252,148.358597 79.721535,122.828201   C88.421242,97.281891 106.926704,82.077927 133.952454,76.864426  z" fill="#ffffff" opacity="1.000000" stroke="none"/>
</svg>