<svg width="11" height="11" viewBox="0 0 11 11" fill="none" xmlns="http://www.w3.org/2000/svg">
<g clip-path="url(#clip0_10_39)">
<path d="M5.49996 3.20833C5.49996 2.7221 5.3068 2.25579 4.96299 1.91197C4.61917 1.56815 4.15286 1.375 3.66663 1.375H0.916626V8.25H4.12496C4.48963 8.25 4.83937 8.39487 5.09723 8.65273C5.35509 8.91059 5.49996 9.26033 5.49996 9.625M5.49996 3.20833V9.625M5.49996 3.20833C5.49996 2.7221 5.69311 2.25579 6.03693 1.91197C6.38075 1.56815 6.84706 1.375 7.33329 1.375H10.0833V8.25H6.87496C6.51029 8.25 6.16055 8.39487 5.90269 8.65273C5.64482 8.91059 5.49996 9.26033 5.49996 9.625" stroke="#FFC400" stroke-linecap="round" stroke-linejoin="round"/>
</g>
<defs>
<clipPath id="clip0_10_39">
<rect width="11" height="11" fill="white"/>
</clipPath>
</defs>
</svg>
