<?xml version="1.0" standalone="no"?>
<!DOCTYPE svg PUBLIC "-//W3C//DTD SVG 20010904//EN"
 "http://www.w3.org/TR/2001/REC-SVG-20010904/DTD/svg10.dtd">
<svg version="1.0" xmlns="http://www.w3.org/2000/svg"
 width="64.000000pt" height="64.000000pt" viewBox="0 0 64.000000 64.000000"
 preserveAspectRatio="xMidYMid meet">

<g transform="translate(0.000000,64.000000) scale(0.100000,-0.100000)"
fill="#FF0000" stroke="none">
<path d="M240 627 c-91 -26 -174 -98 -213 -186 -28 -64 -28 -178 0 -243 30
-65 95 -133 162 -165 113 -56 261 -30 355 62 122 121 123 328 1 450 -76 75
-206 110 -305 82z m37 -201 l48 -45 48 47 47 46 27 -27 27 -27 -47 -48 -47
-48 26 -25 c14 -13 35 -37 46 -52 l21 -29 -27 -26 -26 -26 -50 49 -50 49 -50
-49 -50 -49 -27 27 -27 27 49 50 49 50 -49 50 -49 50 24 25 c13 14 27 25 31
25 4 0 29 -20 56 -44z"/>
</g>
</svg>
